<svg height="512pt" viewBox="0 -34 512.00003 512" width="512pt" xmlns="http://www.w3.org/2000/svg"><path d="m392.535156 85.332031v-34.132812c0-23.5625-19.105468-42.664063-42.667968-42.664063h-187.734376c-23.5625 0-42.667968 19.101563-42.667968 42.664063v34.132812zm0 0" fill="#607d8b"/><path d="m443.734375 153.601562v-34.136718c0-23.5625-19.105469-42.664063-42.667969-42.664063h-290.132812c-23.5625 0-42.667969 19.101563-42.667969 42.664063v34.136718zm0 0" fill="#607d8b"/><path d="m59.734375 145.066406h392.53125c28.277344 0 51.199219 22.921875 51.199219 51.199219v187.734375c0 28.277344-22.921875 51.199219-51.199219 51.199219h-392.53125c-28.277344 0-51.199219-22.921875-51.199219-51.199219v-187.734375c0-28.277344 22.921875-51.199219 51.199219-51.199219zm0 0" fill="#9e9e9e"/><path d="m59.734375 145.066406h366.933594c28.277343 0 51.199219 22.921875 51.199219 51.199219v187.734375c0 28.277344-22.921876 51.199219-51.199219 51.199219h-366.933594c-28.277344 0-51.199219-22.921875-51.199219-51.199219v-187.734375c0-28.277344 22.921875-51.199219 51.199219-51.199219zm0 0" fill="#f5f5f5"/><path d="m349.867188 290.132812c.011718 24.898438-9.871094 48.78125-27.476563 66.390626-17.609375 17.605468-41.492187 27.488281-66.390625 27.476562-4.285156.035156-8.566406-.28125-12.800781-.9375-46.441407-6.371094-81.050781-46.050781-81.050781-92.929688 0-46.875 34.609374-86.554687 81.050781-92.925781 4.234375-.660156 8.515625-.972656 12.800781-.941406 24.898438-.011719 48.78125 9.871094 66.390625 27.480469 17.605469 17.605468 27.488281 41.488281 27.476563 66.386718zm0 0" fill="#c52828"/><path d="m324.265625 290.132812c0-51.320312-36.292969-92.925781-81.066406-92.925781-44.769531 0-81.066407 41.605469-81.066407 92.925781 0 51.324219 36.296876 92.929688 81.066407 92.929688 44.773437 0 81.066406-41.605469 81.066406-92.929688zm0 0" fill="#f44335"/><path d="m221.867188 255.300781v69.664063c.023437 6.042968 3.367187 11.582031 8.699218 14.425781 5.332032 2.839844 11.796875 2.519531 16.824219-.832031l52.496094-34.832032c4.566406-3.015624 7.3125-8.121093 7.3125-13.59375 0-5.472656-2.746094-10.578124-7.3125-13.59375l-52.496094-34.832031c-5.027344-3.351562-11.492187-3.667969-16.824219-.828125-5.332031 2.839844-8.675781 8.378906-8.699218 14.421875zm0 0" fill="#fff"/><path d="m304.640625 269.421875-52.496094-34.832031c-7.652343-5.101563-17.488281-5.585938-25.601562-1.253906-8.113281 4.328124-13.191407 12.769531-13.210938 21.964843v69.664063c.03125 9.1875 5.101563 17.613281 13.203125 21.941406 8.101563 4.328125 17.925782 3.855469 25.574219-1.230469l52.53125-34.839843c6.945313-4.597657 11.125-12.375 11.125-20.707032 0-8.332031-4.179687-16.105468-11.125-20.707031zm-9.386719 27.195313-52.507812 34.835937c-2.425782 1.652344-5.578125 1.796875-8.148438.375-2.539062-1.328125-4.128906-3.960937-4.121094-6.828125v-69.699219c-.007812-2.867187 1.582032-5.5 4.121094-6.828125 1.15625-.628906 2.441406-.972656 3.753906-1.007812 1.542969.011718 3.050782.484375 4.320313 1.359375l52.503906 34.832031c2.179688 1.441406 3.488281 3.875 3.488281 6.484375 0 2.613281-1.308593 5.046875-3.488281 6.488281zm0 0"/><path d="m256 187.734375c-56.554688 0-102.398438 45.84375-102.398438 102.398437 0 56.554688 45.84375 102.402344 102.398438 102.402344s102.398438-45.847656 102.398438-102.402344c-.058594-56.527343-45.871094-102.339843-102.398438-102.398437zm0 187.730469c-47.128906 0-85.332031-38.203125-85.332031-85.332032 0-47.128906 38.203125-85.332031 85.332031-85.332031s85.332031 38.203125 85.332031 85.332031c-.050781 47.105469-38.226562 85.28125-85.332031 85.332032zm0 0"/><path d="m452.265625 136.535156v-17.070312c-.027344-28.261719-22.933594-51.171875-51.199219-51.199219v-17.066406c-.027344-28.265625-22.933594-51.1718752-51.199218-51.199219h-187.734376c-28.265624.0273438-51.171874 22.933594-51.199218 51.199219v17.066406c-28.265625.027344-51.171875 22.9375-51.199219 51.199219v17.070312c-32.976563.035156-59.6953125 26.757813-59.734375 59.730469v187.734375c.0390625 32.972656 26.757812 59.695312 59.734375 59.734375h392.53125c32.976563-.039063 59.695313-26.761719 59.734375-59.734375v-187.734375c-.039062-32.972656-26.757812-59.695313-59.734375-59.730469zm-324.265625-85.335937c0-18.851563 15.28125-34.132813 34.132812-34.132813h187.734376c18.851562 0 34.132812 15.28125 34.132812 34.132813v17.066406h-256zm-51.199219 68.265625c0-18.847656 15.28125-34.132813 34.132813-34.132813h290.132812c18.851563 0 34.132813 15.285157 34.132813 34.132813v17.070312h-358.398438zm418.132813 264.535156c-.027344 23.550781-19.113282 42.636719-42.667969 42.667969h-392.53125c-23.554687-.03125-42.640625-19.117188-42.667969-42.667969v-187.734375c.027344-23.550781 19.113282-42.636719 42.667969-42.664063h392.53125c23.554687.027344 42.640625 19.113282 42.667969 42.664063zm0 0"/></svg>