<?xml version="1.0"?>
<svg xmlns="http://www.w3.org/2000/svg" viewBox="0 0 64 64" width="512" height="512"><g id="Flat"><polygon points="13 23 59 23 55 47 17 47 13 23" style="fill:#592c02"/><polygon points="55 54 17.153 54 11.153 18 5 18 5 16 12.847 16 18.847 52 55 52 55 54" style="fill:#ff6536"/><path d="M27,62a4,4,0,1,1,4-4A4,4,0,0,1,27,62Zm0-6a2,2,0,1,0,2,2A2,2,0,0,0,27,56Z" style="fill:#ffa900"/><path d="M45,62a4,4,0,1,1,4-4A4,4,0,0,1,45,62Zm0-6a2,2,0,1,0,2,2A2,2,0,0,0,45,56Z" style="fill:#ffa900"/><polygon points="26 3 46 3 46 17 53 17 36 34 19 17 26 17 26 3" style="fill:#fdb62f"/><circle cx="36" cy="17" r="6" style="fill:#f80"/><polygon points="39 16 37 16 37 14 35 14 35 16 33 16 33 18 35 18 35 20 37 20 37 18 39 18 39 16" style="fill:#ffe9cc"/></g></svg>
